<?xml version="1.0" encoding="UTF-8" standalone="no"?>
<!DOCTYPE svg PUBLIC "-//W3C//DTD SVG 1.1//EN" "http://www.w3.org/Graphics/SVG/1.1/DTD/svg11.dtd">
<svg xmlns="http://www.w3.org/2000/svg" version="1.1" viewBox="0.00 0.00 1024.00 1024.00">
<rect fill="#ffffff" x="523.25" y="198.27" width="63.50" height="451.86" rx="31.29"/>
<path fill="#ffffff" d="
  M 488.76 233.00
  C 488.65 349.92 488.88 466.83 488.68 583.75
  Q 488.65 597.83 488.71 611.92
  C 488.75 623.17 487.44 633.89 478.18 641.62
  C 461.73 655.35 436.03 652.38 426.79 631.71
  C 425.36 628.53 424.00 623.83 423.94 619.80
  C 423.70 602.67 424.23 584.91 424.24 568.50
  Q 424.28 461.87 424.49 355.24
  C 424.59 305.07 423.79 259.73 424.31 233.00
  C 424.56 220.13 432.15 208.70 443.69 203.39
  C 465.57 193.33 488.78 210.08 488.76 233.00
  Z"
/>
<path fill="#ffffff" d="
  M 624.05 291.22
  C 624.08 283.10 624.82 275.23 629.23 269.00
  C 635.99 259.46 646.45 253.93 658.34 254.79
  C 671.71 255.76 682.65 265.17 686.17 277.41
  Q 687.75 282.90 687.76 297.25
  Q 687.77 317.45 687.73 337.65
  Q 687.71 349.70 686.16 354.68
  C 676.61 385.38 632.40 383.74 625.00 352.54
  Q 624.03 348.45 624.01 338.38
  Q 623.95 314.80 624.05 291.22
  Z"
/>
<path fill="#ffffff" d="
  M 369.05 601.98
  C 349.94 614.09 322.84 599.71 322.91 576.75
  Q 323.33 432.13 323.25 287.50
  C 323.23 268.72 341.68 253.00 360.49 257.81
  C 371.68 260.67 381.19 268.45 384.33 279.74
  Q 385.47 283.83 385.44 295.36
  Q 385.12 421.80 385.41 548.25
  Q 385.44 560.75 385.39 573.25
  C 385.36 578.19 384.44 584.99 381.57 589.52
  C 378.45 594.45 373.82 598.96 369.05 601.98
  Z"
/>
<path fill="#ffffff" d="
  M 726.64 348.25
  C 726.70 318.43 762.59 303.62 782.23 326.40
  Q 790.15 335.59 790.17 349.50
  Q 790.35 482.32 790.24 526.25
  C 790.23 529.38 790.01 534.10 788.92 537.49
  C 783.45 554.39 767.48 563.78 750.28 559.42
  C 735.63 555.72 726.46 542.37 726.47 527.25
  Q 726.53 400.48 726.64 348.25
  Z"
/>
<path fill="#ffffff" d="
  M 262.01 320.54
  C 281.73 328.89 279.93 349.93 279.90 367.50
  Q 279.78 445.88 280.13 524.25
  Q 280.21 543.52 265.04 553.59
  C 254.78 560.40 241.05 559.98 230.93 553.33
  C 222.04 547.48 217.72 537.93 217.72 527.25
  Q 217.75 440.25 217.62 353.25
  C 217.60 338.99 221.61 326.71 235.40 320.39
  Q 248.00 314.62 262.01 320.54
  Z"
/>
<path fill="#ffffff" d="
  M 657.34 485.96
  C 672.41 486.66 684.19 497.13 687.10 512.03
  Q 687.67 514.93 687.70 521.25
  Q 687.81 544.27 687.75 567.30
  Q 687.72 580.79 686.10 586.05
  C 679.18 608.55 650.37 615.55 633.57 598.93
  C 625.03 590.49 624.10 582.21 624.03 569.35
  Q 623.86 535.09 624.08 517.50
  C 624.30 499.50 639.00 485.12 657.34 485.96
  Z"
/>
<path fill="#ffffff" d="
  M 357.51 717.56
  L 357.52 779.47
  Q 357.52 779.96 357.03 779.96
  L 342.56 779.87
  Q 342.00 779.87 342.00 779.31
  L 342.00 717.56
  A 0.69 0.69 0.0 0 0 341.31 716.87
  L 331.84 716.85
  Q 331.27 716.85 331.28 717.41
  L 331.29 779.44
  Q 331.29 779.91 330.81 779.91
  L 316.23 779.88
  A 0.49 0.49 0.0 0 1 315.74 779.39
  Q 315.77 748.86 315.73 718.25
  C 315.71 706.47 323.47 701.36 334.16 701.22
  C 340.24 701.14 344.22 700.95 349.24 703.17
  A 1.14 1.12 -45.3 0 0 350.16 703.16
  C 355.01 700.94 359.36 701.11 364.99 701.23
  C 372.65 701.40 379.26 703.31 382.32 710.71
  Q 383.73 714.12 383.74 722.47
  Q 383.77 750.96 383.73 779.44
  Q 383.73 779.95 383.23 779.95
  L 368.60 779.94
  Q 368.00 779.94 368.00 779.35
  L 368.00 717.43
  A 0.57 0.57 0.0 0 0 367.43 716.86
  L 358.19 716.87
  Q 357.51 716.87 357.51 717.56
  Z"
/>
<path fill="#ffffff" d="
  M 406.61 749.06
  L 406.64 779.56
  Q 406.64 780.00 406.19 780.00
  L 391.51 779.92
  Q 391.02 779.91 391.02 779.42
  Q 390.96 749.71 391.03 720.01
  Q 391.05 713.86 392.42 710.70
  C 395.73 703.04 402.34 701.22 410.26 701.22
  C 419.14 701.22 427.43 701.49 431.35 710.55
  Q 432.78 713.87 432.78 721.13
  Q 432.78 750.30 432.76 779.44
  Q 432.76 779.95 432.25 779.95
  L 417.53 779.96
  A 0.43 0.42 -90.0 0 1 417.11 779.53
  L 417.07 748.77
  A 0.39 0.39 0.0 0 0 416.67 748.38
  L 407.19 748.47
  Q 406.61 748.48 406.61 749.06
  Z
  M 417.09 717.30
  A 0.44 0.44 0.0 0 0 416.65 716.86
  L 407.05 716.86
  A 0.44 0.44 0.0 0 0 406.61 717.30
  L 406.61 732.36
  A 0.44 0.44 0.0 0 0 407.05 732.80
  L 416.65 732.80
  A 0.44 0.44 0.0 0 0 417.09 732.36
  L 417.09 717.30
  Z"
/>
<path fill="#ffffff" d="
  M 466.48 717.34
  L 466.49 779.65
  A 0.34 0.34 0.0 0 1 466.15 779.99
  L 451.20 779.99
  A 0.34 0.34 0.0 0 1 450.86 779.65
  L 450.87 717.31
  A 0.34 0.34 0.0 0 0 450.53 716.97
  L 438.85 716.88
  A 0.34 0.34 0.0 0 1 438.51 716.54
  L 438.50 701.58
  A 0.34 0.34 0.0 0 1 438.84 701.24
  L 478.18 701.24
  A 0.34 0.34 0.0 0 1 478.52 701.58
  L 478.50 716.62
  A 0.34 0.34 0.0 0 1 478.16 716.96
  L 466.82 717.00
  A 0.34 0.34 0.0 0 0 466.48 717.34
  Z"
/>
<path fill="#ffffff" d="
  M 511.15 717.39
  L 511.14 779.56
  A 0.39 0.39 0.0 0 1 510.75 779.95
  L 495.89 780.01
  A 0.39 0.39 0.0 0 1 495.50 779.62
  L 495.54 717.38
  A 0.39 0.39 0.0 0 0 495.15 716.99
  L 483.63 716.95
  A 0.39 0.39 0.0 0 1 483.24 716.56
  L 483.21 701.63
  A 0.39 0.39 0.0 0 1 483.60 701.24
  L 522.87 701.24
  A 0.39 0.39 0.0 0 1 523.26 701.63
  L 523.25 716.56
  A 0.39 0.39 0.0 0 1 522.86 716.95
  L 511.54 717.00
  A 0.39 0.39 0.0 0 0 511.15 717.39
  Z"
/>
<path fill="#ffffff" d="
  M 545.29 732.80
  L 554.94 732.82
  A 0.35 0.35 0.0 0 0 555.29 732.47
  L 555.28 701.59
  A 0.35 0.35 0.0 0 1 555.63 701.24
  L 570.65 701.25
  A 0.35 0.35 0.0 0 1 571.00 701.60
  L 570.99 779.64
  A 0.35 0.35 0.0 0 1 570.64 779.99
  L 555.60 780.00
  A 0.35 0.35 0.0 0 1 555.25 779.65
  L 555.30 748.78
  A 0.35 0.35 0.0 0 0 554.95 748.43
  L 545.27 748.46
  A 0.35 0.35 0.0 0 0 544.92 748.81
  L 544.86 779.64
  A 0.35 0.35 0.0 0 1 544.51 779.99
  L 529.53 779.97
  A 0.35 0.35 0.0 0 1 529.18 779.62
  L 529.11 701.59
  A 0.35 0.35 0.0 0 1 529.46 701.24
  L 544.51 701.25
  A 0.35 0.35 0.0 0 1 544.86 701.60
  L 544.94 732.45
  A 0.35 0.35 0.0 0 0 545.29 732.80
  Z"
/>
<path fill="#ffffff" d="
  M 594.22 732.80
  L 614.01 732.77
  Q 615.00 732.77 615.00 733.76
  L 614.95 748.02
  Q 614.95 748.48 614.48 748.48
  L 594.08 748.44
  Q 593.60 748.43 593.60 748.92
  L 593.64 763.57
  A 0.68 0.67 -0.0 0 0 594.32 764.24
  L 614.49 764.24
  Q 615.00 764.24 615.00 764.74
  L 614.90 779.42
  Q 614.89 779.97 614.34 779.97
  L 582.72 779.92
  A 4.71 4.71 0.0 0 1 578.01 775.22
  L 577.99 705.87
  A 4.64 4.63 -0.0 0 1 582.63 701.24
  L 614.49 701.24
  Q 614.98 701.24 614.98 701.74
  L 614.88 716.29
  Q 614.88 716.97 614.21 716.97
  L 594.17 717.00
  Q 593.60 717.00 593.60 717.58
  L 593.64 732.22
  Q 593.64 732.80 594.22 732.80
  Z"
/>
<path fill="#ffffff" d="
  M 638.11 764.35
  L 647.66 764.40
  A 0.35 0.34 90.0 0 0 648.00 764.05
  L 648.06 701.72
  Q 648.06 701.24 648.53 701.24
  L 663.23 701.25
  Q 663.76 701.25 663.76 701.77
  Q 663.78 731.08 663.80 760.37
  Q 663.80 767.14 662.41 770.43
  C 659.09 778.24 652.38 779.92 644.24 779.91
  C 640.38 779.90 636.16 780.25 632.69 779.04
  Q 626.10 776.74 623.37 770.61
  Q 622.01 767.56 622.01 761.67
  Q 621.98 731.72 622.00 701.76
  Q 622.00 701.25 622.52 701.25
  L 637.06 701.24
  Q 637.62 701.24 637.62 701.81
  L 637.63 763.86
  Q 637.63 764.35 638.11 764.35
  Z"
/>
<path fill="#ffffff" d="
  M 694.95 763.59
  L 695.02 758.86
  Q 695.02 758.32 694.67 757.92
  Q 685.09 747.25 675.49 736.60
  C 669.43 729.88 668.34 727.15 668.79 717.53
  Q 669.35 705.40 679.59 702.08
  C 683.36 700.85 688.37 701.27 692.83 701.24
  C 703.45 701.17 710.06 706.60 710.40 717.75
  Q 710.54 722.24 710.55 726.72
  Q 710.55 727.27 710.01 727.27
  L 695.55 727.33
  Q 695.00 727.34 695.00 726.79
  L 694.99 717.48
  Q 694.99 716.96 694.47 716.96
  L 684.74 717.00
  Q 684.24 717.00 684.24 717.51
  L 684.25 722.44
  Q 684.25 722.99 684.63 723.41
  Q 695.41 735.49 706.19 747.55
  C 710.41 752.28 710.87 757.38 710.54 763.77
  C 710.10 771.99 706.01 777.73 697.61 779.64
  Q 694.98 780.25 686.77 779.95
  Q 680.40 779.73 677.04 778.00
  C 667.19 772.92 668.98 763.73 668.57 754.37
  Q 668.54 753.68 669.23 753.68
  L 683.83 753.75
  A 0.42 0.41 89.3 0 1 684.24 754.16
  L 684.27 763.75
  A 0.49 0.48 90.0 0 0 684.75 764.24
  L 694.28 764.25
  Q 694.94 764.25 694.95 763.59
  Z"
/>
<path fill="#ffffff" d="
  M 475.04 807.89
  C 477.88 809.46 482.28 810.39 484.24 812.60
  C 487.16 815.92 485.94 821.74 482.73 824.29
  C 478.45 827.69 472.15 826.54 468.18 823.01
  A 0.69 0.69 0.0 0 1 468.01 822.20
  Q 468.73 820.67 469.94 819.51
  A 0.75 0.75 0.0 0 1 470.83 819.39
  C 472.87 820.52 475.70 822.69 478.13 821.71
  C 480.31 820.84 481.51 818.43 480.03 816.39
  C 478.03 813.66 473.22 814.36 470.84 811.54
  Q 467.80 807.93 469.20 803.81
  C 471.44 797.24 479.19 796.71 484.42 800.21
  Q 485.60 801.00 484.86 802.21
  L 483.98 803.66
  Q 483.20 804.96 481.93 804.12
  C 479.58 802.54 475.78 801.72 474.12 804.65
  A 2.38 2.37 29.2 0 0 475.04 807.89
  Z"
/>
<path fill="#ffffff" d="
  M 536.73 816.24
  L 533.52 816.05
  A 0.53 0.53 0.0 0 1 533.02 815.52
  L 532.99 812.50
  Q 532.99 811.99 533.50 811.99
  L 541.74 811.98
  Q 542.24 811.98 542.24 812.49
  L 542.24 822.95
  Q 542.24 823.49 541.77 823.77
  C 529.84 830.92 514.15 822.10 518.86 807.36
  C 521.85 798.03 533.11 795.50 541.30 800.81
  Q 542.56 801.63 541.69 802.85
  L 540.64 804.34
  Q 539.74 805.61 538.48 804.70
  C 533.65 801.24 525.88 802.45 524.19 808.77
  C 522.60 814.71 524.94 821.38 532.00 821.98
  Q 534.60 822.20 536.80 820.99
  Q 537.20 820.76 537.20 820.31
  L 537.20 816.73
  Q 537.20 816.26 536.73 816.24
  Z"
/>
<path fill="#ffffff" d="
  M 403.05 798.83
  A 0.48 0.48 0.0 0 1 403.53 798.35
  L 413.47 798.37
  A 13.32 13.16 -89.9 0 1 426.61 811.71
  L 426.61 812.77
  A 13.32 13.16 -89.9 0 1 413.43 826.07
  L 403.49 826.05
  A 0.48 0.48 0.0 0 1 403.01 825.57
  L 403.05 798.83
  Z
  M 408.69 803.23
  L 408.79 821.35
  A 0.44 0.44 0.0 0 0 409.23 821.79
  L 412.97 821.77
  A 8.38 8.06 89.7 0 0 420.99 813.35
  L 420.97 811.11
  A 8.38 8.06 89.7 0 0 412.87 802.77
  L 409.13 802.79
  A 0.44 0.44 0.0 0 0 408.69 803.23
  Z"
/>
<path fill="#ffffff" d="
  M 445.00 803.24
  L 445.00 809.60
  A 0.40 0.40 0.0 0 0 445.40 810.00
  L 453.45 809.98
  A 0.40 0.40 0.0 0 1 453.85 810.37
  L 453.96 813.83
  A 0.40 0.40 0.0 0 1 453.56 814.24
  L 445.40 814.22
  A 0.40 0.40 0.0 0 0 445.00 814.62
  L 445.01 821.35
  A 0.40 0.40 0.0 0 0 445.41 821.75
  L 455.85 821.74
  A 0.40 0.40 0.0 0 1 456.25 822.14
  L 456.25 825.62
  A 0.40 0.40 0.0 0 1 455.85 826.02
  L 439.77 826.02
  A 0.40 0.40 0.0 0 1 439.37 825.62
  L 439.39 798.77
  A 0.40 0.40 0.0 0 1 439.79 798.37
  L 455.84 798.35
  A 0.40 0.40 0.0 0 1 456.24 798.75
  L 456.26 802.53
  A 0.40 0.40 0.0 0 1 455.86 802.93
  L 445.40 802.84
  A 0.40 0.40 0.0 0 0 445.00 803.24
  Z"
/>
<rect fill="#ffffff" x="499.00" y="798.31" width="5.76" height="27.70" rx="0.50"/>
<path fill="#ffffff" d="
  M 561.17 808.31
  A 0.30 0.29 26.1 0 0 560.64 808.49
  L 560.71 825.65
  Q 560.71 826.01 560.35 826.01
  L 556.02 826.00
  Q 555.80 826.00 555.80 825.77
  L 555.83 798.97
  Q 555.83 798.41 556.38 798.33
  C 558.46 798.02 559.74 798.24 561.08 800.00
  Q 567.39 808.32 573.31 816.21
  Q 573.98 817.11 573.98 815.99
  L 573.99 798.81
  A 0.44 0.44 0.0 0 1 574.44 798.37
  L 578.25 798.45
  Q 578.78 798.46 578.78 798.99
  L 578.78 825.49
  Q 578.78 826.00 578.26 826.01
  L 575.25 826.01
  A 1.07 1.07 0.0 0 1 574.41 825.60
  L 561.17 808.31
  Z"
/>
<path fill="#ffffff" d="
  M 598.41 814.75
  L 598.49 821.25
  A 0.50 0.50 0.0 0 0 598.99 821.74
  L 609.45 821.73
  A 0.50 0.50 0.0 0 1 609.95 822.24
  L 609.90 825.54
  A 0.50 0.50 0.0 0 1 609.40 826.03
  L 593.49 826.02
  A 0.50 0.50 0.0 0 1 592.99 825.52
  L 592.99 798.85
  A 0.50 0.50 0.0 0 1 593.49 798.35
  L 609.48 798.39
  A 0.50 0.50 0.0 0 1 609.98 798.89
  L 609.99 802.41
  A 0.50 0.50 0.0 0 1 609.49 802.91
  L 598.97 802.87
  A 0.50 0.50 0.0 0 0 598.47 803.37
  L 598.48 809.49
  A 0.50 0.50 0.0 0 0 598.98 809.99
  L 606.73 809.99
  A 0.50 0.50 0.0 0 1 607.23 810.49
  L 607.25 813.72
  A 0.50 0.50 0.0 0 1 606.75 814.22
  L 598.91 814.24
  A 0.50 0.50 0.0 0 0 598.41 814.75
  Z"
/>
<path fill="#ffffff" d="
  M 636.87 814.55
  L 643.98 825.75
  Q 644.14 826.00 643.84 826.00
  L 638.26 826.02
  Q 637.96 826.02 637.78 825.77
  Q 635.07 821.83 632.61 817.17
  Q 631.44 814.95 628.95 815.44
  Q 628.47 815.53 628.47 816.03
  L 628.45 825.78
  Q 628.45 826.00 628.23 826.00
  L 623.25 826.01
  A 0.26 0.26 0.0 0 1 622.99 825.75
  L 622.99 799.01
  Q 622.99 798.47 623.53 798.44
  C 628.48 798.17 636.71 797.81 639.70 801.13
  C 642.67 804.44 642.12 809.38 639.14 812.51
  C 638.57 813.11 637.70 813.35 636.98 813.90
  Q 636.63 814.18 636.87 814.55
  Z
  M 628.38 803.16
  L 628.48 811.08
  A 0.49 0.49 0.0 0 0 628.97 811.56
  L 631.77 811.53
  A 4.49 3.98 -0.7 0 0 636.22 807.49
  L 636.20 806.55
  A 4.49 3.98 -0.7 0 0 631.67 802.63
  L 628.87 802.66
  A 0.49 0.49 0.0 0 0 628.38 803.16
  Z"
/>
</svg>
